<?xml version="1.0" encoding="utf-8"?>
<!-- Generator: Adobe Illustrator 21.0.2, SVG Export Plug-In . SVG Version: 6.00 Build 0)  -->
<svg version="1.1" id="Layer_1" xmlns="http://www.w3.org/2000/svg" xmlns:xlink="http://www.w3.org/1999/xlink" x="0px" y="0px"
     viewBox="0 0 720 680" style="enable-background:new 0 0 720 680;" xml:space="preserve">
<style type="text/css">
    .st0{fill:#0F1E2D;}
</style>
<g transform="translate(0, -20)">
    <path class="st0" d="M179.6,260.5c0,2.6-0.4,5.4-1.2,8.5c-0.8,3.1-2.2,5.7-4,7.9c-2.2,2.6-4.6,4.5-7.3,5.9c-2.7,1.3-6.7,2-12.1,2
		c-8.2,0-14.6-2.8-19.2-8.5c-4.6-5.7-9.6-15.1-14.9-28.4c-4.1,1.8-7.5,6.3-10.1,13.6c-2.6,7.3-3.9,23-3.9,47.2v12.2h42.8v16.9h-42.4
		v106.6c0,4,0.9,7.1,2.8,9.4s4.3,3.8,7.3,4.9c2.5,0.8,5.7,1.6,9.8,2.4c4,0.8,7.6,1.3,10.8,1.6V474H33.2v-11.3
		c2.7-0.2,5.3-0.5,7.9-0.8c2.5-0.3,4.8-0.8,6.8-1.5c3.3-1.2,5.6-3,6.8-5.3c1.2-2.3,1.8-5.4,1.8-9.2v-108H25v-16.9h31.4
		c0-11,1.6-21.7,4.8-32.1c3.2-10.4,8.2-19.6,14.9-27.8c6.5-8,15.1-14.5,25.7-19.5c10.6-4.9,23.1-7.4,37.5-7.4
		c12.8,0,22.7,2.4,29.7,7.3C176.1,246.3,179.6,252.7,179.6,260.5z"/>
    <path class="st0" d="M298.7,338.6c7.6,7.1,13.5,15.6,17.5,25.6s6,20.7,6,32.2c0,11.5-2,22.3-6,32.5c-4,10.2-9.8,18.9-17.4,26.1
		c-8.2,7.7-17.9,13.7-29.2,17.8c-11.3,4.1-24.2,6.2-38.8,6.2c-12.6,0-24.2-1.8-34.8-5.4c-10.6-3.6-20-9-28.1-16.3
		c-7.9-6.9-14-15.5-18.6-25.6c-4.5-10.2-6.8-21.6-6.8-34.2c0-12.4,2-23.4,6-33.1c4-9.7,9.9-18.3,17.9-25.8
		c7.6-7.2,17.1-12.8,28.3-16.8c11.2-4,23.7-6,37.6-6c14.5,0,27.2,2,38.2,6C281.4,325.8,290.8,331.4,298.7,338.6z M259,446
		c2.3-5.8,4-12.8,5-21.1c1.1-8.3,1.6-17.9,1.6-28.8c0-7.2-0.5-15.5-1.5-24.8c-1-9.3-2.6-16.6-4.6-22c-2.5-6.5-5.9-11.6-10.3-15.3
		c-4.4-3.7-9.9-5.6-16.7-5.6c-7.3,0-13.2,2-17.6,6c-4.4,4-7.8,9.2-10.1,15.6c-2.2,5.9-3.7,12.8-4.5,20.7c-0.8,7.9-1.2,16.1-1.2,24.7
		c0,11.3,0.4,20.6,1.1,28c0.7,7.4,2.5,14.8,5.3,22.2c2.4,6.4,5.8,11.5,10.2,15.2c4.4,3.7,10.1,5.6,16.9,5.6c6.2,0,11.5-1.7,16-5.2
		C252.9,457.8,256.4,452.7,259,446z"/>
    <path class="st0" d="M462.3,291c8.3,0,15.4-2.8,21.5-8.3c6-5.5,9.1-12.2,9.1-20.1c0-7.8-3-14.6-9-20.1c-6-5.6-13.2-8.4-21.5-8.4
		c-8.4,0-15.6,2.8-21.6,8.4c-6,5.6-9.1,12.3-9.1,20.1c0,7.9,3,14.5,9.1,20.1C446.7,288.3,453.9,291,462.3,291z"/>
    <path class="st0" d="M671.5,338.6c7.6,7.1,13.5,15.6,17.5,25.6c4,9.9,6,20.7,6,32.2c0,11.5-2,22.3-6,32.5
		c-4,10.2-9.8,18.9-17.4,26.1c-8.2,7.7-17.9,13.7-29.2,17.8c-11.3,4.1-24.2,6.2-38.8,6.2c-12.6,0-24.2-1.8-34.8-5.4
		c-10.6-3.6-20-9-28.1-16.3c-7.9-6.9-14-15.5-18.6-25.6c-4.5-10.2-6.8-21.6-6.8-34.2c0-12.4,2-23.4,6-33.1c4-9.7,9.9-18.3,17.9-25.8
		c7.6-7.2,17.1-12.8,28.3-16.8c11.2-4,23.7-6,37.6-6c14.5,0,27.2,2,38.2,6C654.2,325.8,663.6,331.4,671.5,338.6z M631.8,446
		c2.3-5.8,4-12.8,5-21.1c1.1-8.3,1.6-17.9,1.6-28.8c0-7.2-0.5-15.5-1.5-24.8c-1-9.3-2.6-16.6-4.6-22c-2.5-6.5-5.9-11.6-10.3-15.3
		c-4.4-3.7-9.9-5.6-16.7-5.6c-7.3,0-13.2,2-17.6,6c-4.4,4-7.8,9.2-10.1,15.6c-2.2,5.9-3.7,12.8-4.5,20.7c-0.8,7.9-1.2,16.1-1.2,24.7
		c0,11.3,0.4,20.6,1.1,28c0.7,7.4,2.5,14.8,5.3,22.2c2.4,6.4,5.8,11.5,10.2,15.2c4.4,3.7,10.1,5.6,16.9,5.6c6.2,0,11.5-1.7,16-5.2
		C625.7,457.8,629.2,452.7,631.8,446z"/>
    <path class="st0" d="M507.7,461.1c-2.5-0.7-4.8-1.5-6.8-2.5c-2.9-1.2-5.1-3.1-6.7-5.7c-1.5-2.5-2.3-5.6-2.3-9.2v-123l-2.3-2.3
		l-75.9,4v11.3c3.1,0.3,6.5,1,10.3,2.2c3.8,1.1,6.6,2.3,8.4,3.6c2.5,1.7,4.5,3.8,6.2,6.6c1.7,2.7,2.5,5.9,2.5,9.5v63.9v13.7v8.1
		c0,7.5-1.2,12.3-3.3,15.4c-3.7,5.5-10.2,5.5-17.6,5.5h-1.6c-9.9,0-18.1,0-20.3-13c-0.4-2.2-0.6-4.8-0.6-7.9v-8.1v-13.7V236.7
		l-2.3-2.5l-78.1,4v11.3c3.2,0.2,6.9,0.9,11.1,2.2c4.2,1.2,7.3,2.5,9.4,3.9c2.7,1.8,4.8,4.3,6.4,7.7c1.6,3.4,2.4,7,2.4,10.9v171.7
		c0,3.8-0.6,6.9-1.8,9.2c-1.2,2.3-3.5,4.1-6.8,5.3c-2,0.7-4.2,1.2-6.8,1.5c-2.5,0.3-5.2,0.6-7.9,0.8V474h69.8h24.4h3.4h26.5h68
		v-11.3C512.8,462.4,510.2,461.9,507.7,461.1z"/>
</g>
</svg>
